<?xml version="1.0" standalone="no"?>
<!DOCTYPE svg PUBLIC "-//W3C//DTD SVG 20010904//EN"
 "http://www.w3.org/TR/2001/REC-SVG-20010904/DTD/svg10.dtd">
<svg version="1.0" xmlns="http://www.w3.org/2000/svg"
 width="512.000000pt" height="512.000000pt" viewBox="0 0 512.000000 512.000000"
 preserveAspectRatio="xMidYMid meet">
<metadata>
Created by potrace 1.14, written by Peter Selinger 2001-2017
</metadata>
<g transform="translate(0.000000,512.000000) scale(0.100000,-0.100000)"
fill="#000000" stroke="none">
<path d="M2344 5036 c-62 -28 -79 -63 -115 -241 -22 -110 -32 -135 -53 -135
-6 0 -67 36 -136 80 -112 71 -130 80 -173 80 -26 0 -60 -6 -75 -14 -32 -17
-265 -252 -281 -283 -14 -27 -14 -108 -1 -133 10 -19 -4 -19 -602 -22 l-613
-3 -67 -32 c-89 -42 -151 -101 -191 -182 -32 -65 -32 -67 -35 -237 l-4 -171
28 -22 c34 -27 64 -27 98 0 25 20 26 23 26 139 0 201 29 273 131 324 l53 26
648 0 648 0 17 -35 c23 -49 11 -57 -115 -84 -97 -20 -131 -21 -580 -21 -297 0
-491 -4 -514 -10 -48 -14 -94 -53 -118 -101 -20 -37 -20 -67 -20 -1199 0
-1132 0 -1162 20 -1199 24 -48 70 -87 118 -101 25 -6 529 -10 1515 -10 l1477
0 0 -70 0 -70 -1548 0 -1548 0 -53 26 c-64 32 -105 86 -120 155 -7 34 -11 362
-11 999 0 937 0 950 -20 970 -27 27 -83 27 -110 0 -20 -20 -20 -29 -18 -1023
l3 -1002 32 -66 c40 -81 102 -140 191 -182 l67 -32 803 -3 802 -3 0 -279 0
-280 -155 0 c-174 0 -201 -7 -235 -63 -18 -28 -20 -51 -20 -197 0 -146 2 -169
20 -197 40 -67 -22 -63 1050 -63 1072 0 1010 -4 1050 63 18 28 20 51 20 197 0
146 -2 169 -20 197 -34 56 -61 63 -235 63 l-155 0 0 280 0 280 105 0 105 0 0
-70 c0 -105 39 -170 122 -205 31 -12 93 -15 376 -15 l339 0 21 23 c23 25 28
66 12 97 -19 35 -63 40 -386 40 -300 0 -314 1 -324 19 -6 12 -10 126 -10 300
l0 279 -24 29 c-14 17 -70 50 -140 82 -64 30 -116 57 -116 60 0 4 54 34 121
66 67 33 130 71 140 84 18 22 19 44 19 307 0 271 1 285 20 304 20 20 33 20
675 20 642 0 655 0 675 -20 20 -20 20 -33 20 -758 0 -575 -3 -742 -12 -755
-11 -13 -41 -16 -204 -19 -172 -3 -194 -5 -213 -22 -28 -26 -29 -88 -1 -116
19 -19 33 -20 220 -20 159 0 208 3 238 15 47 20 79 50 103 97 19 37 19 77 17
1575 l-3 1538 -27 58 c-49 104 -156 190 -270 217 -26 6 -279 10 -631 10 -578
0 -588 0 -577 19 15 28 12 108 -4 139 -17 32 -252 265 -283 281 -12 6 -44 11
-71 11 -45 0 -61 -7 -172 -80 -68 -44 -128 -80 -135 -80 -23 0 -32 24 -59 155
-28 138 -44 176 -89 209 -26 19 -43 21 -225 23 -150 2 -204 0 -228 -11z m379
-213 c8 -38 23 -105 32 -151 10 -46 26 -94 36 -107 25 -30 145 -78 180 -71 15
3 84 42 154 87 l127 82 105 -106 106 -105 -82 -127 c-45 -70 -84 -139 -87
-154 -7 -35 41 -155 71 -180 13 -10 61 -26 107 -35 46 -10 113 -25 151 -33
l67 -15 0 -148 0 -148 -67 -15 c-38 -8 -105 -23 -151 -33 -46 -9 -94 -25 -107
-35 -30 -25 -78 -145 -71 -180 3 -15 42 -84 87 -154 l82 -127 -106 -105 -105
-106 -127 82 c-70 45 -139 84 -154 87 -35 7 -155 -41 -180 -71 -10 -13 -26
-61 -36 -107 -9 -46 -24 -113 -32 -150 l-15 -68 -148 0 -148 0 -15 68 c-8 37
-23 104 -33 150 -9 46 -25 94 -35 107 -25 30 -145 78 -180 71 -15 -3 -84 -42
-154 -87 l-127 -82 -105 106 -106 105 82 126 c45 69 84 139 87 154 7 36 -40
156 -71 181 -13 10 -61 26 -107 36 -46 9 -113 24 -150 32 l-68 15 0 148 0 148
68 15 c37 8 104 23 150 33 46 9 94 25 107 35 31 25 78 145 71 181 -3 15 -42
85 -87 154 l-82 126 106 105 105 106 127 -82 c70 -45 139 -84 154 -87 35 -7
155 41 180 71 10 13 26 61 35 107 10 46 25 113 33 151 l15 67 148 0 148 0 15
-67z m2116 -639 c64 -32 105 -86 120 -155 7 -33 11 -269 11 -679 l0 -630 -75
0 -75 0 0 600 c0 577 -1 602 -20 639 -24 48 -70 87 -118 101 -23 6 -217 10
-514 10 -449 0 -483 1 -580 21 -126 27 -138 35 -115 84 l17 35 648 0 648 0 53
-26z m-3567 -453 c3 -164 5 -182 24 -208 33 -45 71 -61 209 -89 131 -27 155
-36 155 -59 0 -6 -36 -67 -80 -136 -72 -111 -80 -129 -80 -172 0 -27 5 -58 11
-70 16 -31 249 -266 281 -283 15 -8 49 -14 75 -14 43 0 61 9 173 80 69 44 130
80 136 80 22 0 31 -25 59 -158 48 -227 58 -234 337 -230 182 3 199 5 225 24
45 33 61 71 89 209 27 131 36 155 59 155 6 0 67 -36 136 -80 113 -73 128 -80
174 -80 63 0 74 7 204 134 142 139 161 166 161 231 0 48 -6 61 -80 175 -44 68
-80 128 -80 135 0 23 24 32 155 59 138 28 176 44 209 89 19 26 21 44 24 208
l3 179 399 0 c385 0 400 -1 410 -19 6 -13 10 -218 10 -595 l0 -576 -557 -2
-558 -3 -33 -23 c-17 -13 -44 -40 -60 -59 l-27 -36 -3 -282 -3 -282 -166 -79
c-187 -89 -219 -115 -209 -173 7 -47 25 -62 141 -120 l100 -50 -1412 0 c-1386
-1 -1412 -1 -1423 18 -14 27 -14 2235 0 2262 10 18 25 19 410 19 l399 0 3
-179z m1788 -2861 l0 -280 -109 0 -109 0 -4 103 c-5 115 -26 178 -80 234 -73
75 -212 99 -313 54 -112 -50 -156 -129 -163 -288 l-4 -103 -109 0 -109 0 0
280 0 280 500 0 500 0 0 -280z m-440 -35 c46 -24 60 -62 60 -160 l0 -85 -120
0 -120 0 0 85 c0 97 14 136 58 159 35 20 86 20 122 1z m850 -505 l0 -100 -910
0 -910 0 0 100 0 100 910 0 910 0 0 -100z"/>
<path d="M1981 4274 c-19 -24 -21 -40 -21 -169 0 -129 2 -145 21 -169 19 -25
25 -26 110 -26 l89 0 0 -40 0 -40 -104 0 c-58 0 -116 -4 -129 -9 -34 -13 -53
-63 -38 -100 18 -41 49 -51 166 -51 l105 0 0 -29 0 -28 -87 -5 c-79 -4 -88 -7
-110 -32 -22 -26 -23 -34 -23 -172 0 -141 1 -146 25 -169 15 -16 36 -25 55
-25 19 0 40 9 55 25 23 22 25 32 25 120 l0 95 60 0 c33 0 60 -4 60 -9 0 -5 20
-31 44 -58 142 -158 410 -158 552 0 24 27 44 53 44 58 0 5 27 9 60 9 l60 0 0
-95 c0 -88 2 -98 25 -120 32 -33 78 -33 110 0 24 23 25 28 25 169 0 138 -1
146 -23 172 -22 25 -31 28 -110 32 l-87 5 0 28 0 29 105 0 c117 0 148 10 166
51 15 37 -4 87 -38 100 -13 5 -71 9 -129 9 l-104 0 0 40 0 40 89 0 c85 0 91 1
110 26 19 24 21 40 21 169 0 129 -2 145 -21 169 -16 20 -29 26 -59 26 -30 0
-43 -6 -59 -26 -18 -23 -21 -41 -21 -120 l0 -94 -54 0 c-53 0 -55 1 -118 63
-83 84 -148 111 -268 111 -120 0 -185 -27 -268 -111 -63 -62 -65 -63 -118 -63
l-54 0 0 94 c0 79 -3 97 -21 120 -16 20 -29 26 -59 26 -30 0 -43 -6 -59 -26z
m669 -215 c60 -27 79 -45 106 -104 22 -46 24 -63 24 -206 0 -150 -1 -157 -27
-210 -56 -109 -186 -149 -301 -90 -47 24 -66 45 -91 101 -18 39 -21 66 -21
200 0 134 3 161 21 200 27 60 45 79 104 106 62 29 125 30 185 3z"/>
<path d="M2503 3900 c-55 -23 -67 -102 -20 -135 31 -22 129 -20 156 3 33 27
37 74 9 107 -19 22 -34 28 -74 31 -27 2 -59 0 -71 -6z"/>
<path d="M749 3170 c-29 -17 -43 -65 -27 -96 21 -45 51 -55 161 -52 94 3 100
4 123 31 31 36 31 71 -1 102 -23 24 -31 25 -132 25 -59 0 -115 -5 -124 -10z"/>
<path d="M747 2898 c-27 -22 -39 -66 -25 -96 24 -49 45 -53 281 -50 216 3 219
3 238 27 28 35 25 85 -7 110 -25 20 -39 21 -248 21 -162 0 -227 -3 -239 -12z"/>
<path d="M753 2628 c-28 -14 -45 -61 -33 -93 20 -53 39 -56 280 -53 219 3 222
3 241 27 26 32 24 77 -6 106 l-24 25 -218 -1 c-132 0 -227 -5 -240 -11z"/>
<path d="M754 2340 c-49 -11 -94 -49 -115 -94 -15 -34 -19 -66 -19 -193 0
-162 6 -192 48 -237 52 -56 56 -56 502 -56 383 0 413 1 448 19 83 42 101 90
102 264 0 71 -5 148 -11 172 -14 57 -67 110 -124 124 -50 12 -780 14 -831 1z
m804 -287 l3 -133 -391 0 -390 0 0 128 c0 71 3 132 7 135 4 4 178 6 387 5
l381 -3 3 -132z"/>
<path d="M3822 2299 c-28 -14 -51 -36 -67 -64 l-25 -42 0 -417 c0 -329 3 -423
14 -449 17 -42 66 -83 114 -97 50 -13 784 -13 834 0 21 6 51 22 68 37 61 51
60 42 60 503 0 475 1 469 -73 518 l-41 27 -420 3 c-412 2 -422 2 -464 -19z
m843 -529 l0 -385 -387 -3 -388 -2 0 390 0 390 388 -2 387 -3 0 -385z"/>
<path d="M4062 1987 c-40 -42 -30 -80 40 -153 l62 -65 -62 -62 c-49 -50 -62
-69 -62 -94 0 -46 30 -77 74 -77 31 0 45 9 99 62 l62 62 60 -60 c72 -72 108
-83 149 -48 19 16 27 33 28 56 1 28 -9 44 -63 98 l-63 64 61 63 c74 74 85 116
41 157 -40 37 -73 27 -147 -45 l-67 -64 -64 64 c-73 74 -109 84 -148 42z"/>
</g>
</svg>
